<mxfile host="Electron" modified="2024-04-10T22:48:08.423Z" agent="Mozilla/5.0 (Windows NT 10.0; Win64; x64) AppleWebKit/537.36 (KHTML, like Gecko) draw.io/24.1.0 Chrome/120.0.6099.109 Electron/28.1.0 Safari/537.36" etag="cd2hTQElI890sUEtt5Ix" version="24.1.0" type="device">
  <diagram name="Page-1" id="0783ab3e-0a74-02c8-0abd-f7b4e66b4bec">
    <mxGraphModel dx="1418" dy="828" grid="1" gridSize="10" guides="1" tooltips="1" connect="1" arrows="1" fold="1" page="1" pageScale="1" pageWidth="850" pageHeight="1100" background="none" math="0" shadow="0">
      <root>
        <mxCell id="0" />
        <mxCell id="1" parent="0" />
        <mxCell id="1c1d494c118603dd-1" value="Выдача спецодежды на предприятии" style="swimlane;html=1;childLayout=stackLayout;startSize=20;rounded=0;shadow=0;comic=0;labelBackgroundColor=none;strokeWidth=1;fontFamily=Verdana;fontSize=12;align=center;" parent="1" vertex="1">
          <mxGeometry x="20" y="20" width="750" height="460" as="geometry">
            <mxRectangle x="40" y="10" width="320" height="30" as="alternateBounds" />
          </mxGeometry>
        </mxCell>
        <mxCell id="1c1d494c118603dd-2" value="Сотрудник" style="swimlane;html=1;startSize=20;" parent="1c1d494c118603dd-1" vertex="1">
          <mxGeometry y="20" width="250" height="440" as="geometry" />
        </mxCell>
        <mxCell id="gvG07kWjUxrqvg5iNQ5t-2" value="" style="ellipse;html=1;shape=endState;fillColor=strokeColor;" parent="1c1d494c118603dd-2" vertex="1">
          <mxGeometry x="115" y="400" width="20" height="20" as="geometry" />
        </mxCell>
        <mxCell id="gvG07kWjUxrqvg5iNQ5t-6" style="edgeStyle=orthogonalEdgeStyle;rounded=0;orthogonalLoop=1;jettySize=auto;html=1;entryX=0.5;entryY=0;entryDx=0;entryDy=0;" parent="1c1d494c118603dd-2" source="gvG07kWjUxrqvg5iNQ5t-3" target="60571a20871a0731-8" edge="1">
          <mxGeometry relative="1" as="geometry" />
        </mxCell>
        <mxCell id="gvG07kWjUxrqvg5iNQ5t-3" value="" style="ellipse;fillColor=strokeColor;html=1;" parent="1c1d494c118603dd-2" vertex="1">
          <mxGeometry x="111.88" y="30" width="20" height="20" as="geometry" />
        </mxCell>
        <mxCell id="60571a20871a0731-8" value="Оформить заказ" style="rounded=1;whiteSpace=wrap;html=1;shadow=0;comic=0;labelBackgroundColor=none;strokeWidth=1;fontFamily=Verdana;fontSize=12;align=center;arcSize=50;" parent="1c1d494c118603dd-2" vertex="1">
          <mxGeometry x="40" y="80" width="163.75" height="30" as="geometry" />
        </mxCell>
        <mxCell id="gvG07kWjUxrqvg5iNQ5t-14" style="edgeStyle=orthogonalEdgeStyle;rounded=0;orthogonalLoop=1;jettySize=auto;html=1;exitX=0.5;exitY=1;exitDx=0;exitDy=0;entryX=0.5;entryY=0;entryDx=0;entryDy=0;" parent="1c1d494c118603dd-2" source="gvG07kWjUxrqvg5iNQ5t-13" target="gvG07kWjUxrqvg5iNQ5t-2" edge="1">
          <mxGeometry relative="1" as="geometry" />
        </mxCell>
        <mxCell id="gvG07kWjUxrqvg5iNQ5t-13" value="Получить одежду" style="rounded=1;whiteSpace=wrap;html=1;shadow=0;comic=0;labelBackgroundColor=none;strokeWidth=1;fontFamily=Verdana;fontSize=12;align=center;arcSize=50;" parent="1c1d494c118603dd-2" vertex="1">
          <mxGeometry x="40" y="340" width="170" height="30" as="geometry" />
        </mxCell>
        <mxCell id="1c1d494c118603dd-3" value="Склад" style="swimlane;html=1;startSize=20;" parent="1c1d494c118603dd-1" vertex="1">
          <mxGeometry x="250" y="20" width="250" height="440" as="geometry" />
        </mxCell>
        <mxCell id="gvG07kWjUxrqvg5iNQ5t-22" value="Выдать спецодежду" style="rounded=1;whiteSpace=wrap;html=1;shadow=0;comic=0;labelBackgroundColor=none;strokeWidth=1;fontFamily=Verdana;fontSize=12;align=center;arcSize=50;" parent="1c1d494c118603dd-3" vertex="1">
          <mxGeometry x="51.5" y="240" width="158.5" height="30" as="geometry" />
        </mxCell>
        <mxCell id="gvG07kWjUxrqvg5iNQ5t-24" value="Принять заказ на спецодежду" style="rounded=1;whiteSpace=wrap;html=1;shadow=0;comic=0;labelBackgroundColor=none;strokeWidth=1;fontFamily=Verdana;fontSize=12;align=center;arcSize=50;" parent="1c1d494c118603dd-3" vertex="1">
          <mxGeometry x="51.5" y="80" width="158.5" height="30" as="geometry" />
        </mxCell>
        <mxCell id="gvG07kWjUxrqvg5iNQ5t-26" value="Дождаться поступления спецодежды" style="rounded=1;whiteSpace=wrap;html=1;shadow=0;comic=0;labelBackgroundColor=none;strokeWidth=1;fontFamily=Verdana;fontSize=12;align=center;arcSize=50;" parent="1c1d494c118603dd-3" vertex="1">
          <mxGeometry x="51.5" y="380" width="157.5" height="40" as="geometry" />
        </mxCell>
        <mxCell id="gvG07kWjUxrqvg5iNQ5t-15" value="БД" style="swimlane;html=1;startSize=20;" parent="1c1d494c118603dd-1" vertex="1">
          <mxGeometry x="500" y="20" width="250" height="440" as="geometry" />
        </mxCell>
        <mxCell id="gvG07kWjUxrqvg5iNQ5t-19" value="" style="rhombus;whiteSpace=wrap;html=1;" parent="gvG07kWjUxrqvg5iNQ5t-15" vertex="1">
          <mxGeometry x="90" y="200" width="70" height="30" as="geometry" />
        </mxCell>
        <mxCell id="gvG07kWjUxrqvg5iNQ5t-5" value="Проверить наличие спецодежды" style="rounded=1;whiteSpace=wrap;html=1;shadow=0;comic=0;labelBackgroundColor=none;strokeWidth=1;fontFamily=Verdana;fontSize=12;align=center;arcSize=50;" parent="gvG07kWjUxrqvg5iNQ5t-15" vertex="1">
          <mxGeometry x="57.5" y="120" width="135" height="30" as="geometry" />
        </mxCell>
        <mxCell id="gvG07kWjUxrqvg5iNQ5t-20" style="edgeStyle=orthogonalEdgeStyle;rounded=0;orthogonalLoop=1;jettySize=auto;html=1;exitX=0.5;exitY=1;exitDx=0;exitDy=0;entryX=0.5;entryY=0;entryDx=0;entryDy=0;" parent="gvG07kWjUxrqvg5iNQ5t-15" source="gvG07kWjUxrqvg5iNQ5t-5" target="gvG07kWjUxrqvg5iNQ5t-19" edge="1">
          <mxGeometry relative="1" as="geometry" />
        </mxCell>
        <mxCell id="gvG07kWjUxrqvg5iNQ5t-29" value="Позиция в наличии" style="text;html=1;align=left;verticalAlign=middle;whiteSpace=wrap;rounded=0;" parent="gvG07kWjUxrqvg5iNQ5t-15" vertex="1">
          <mxGeometry x="10" y="180" width="70" height="30" as="geometry" />
        </mxCell>
        <mxCell id="gvG07kWjUxrqvg5iNQ5t-30" value="Позиция отсутствует" style="text;html=1;align=left;verticalAlign=middle;whiteSpace=wrap;rounded=0;" parent="gvG07kWjUxrqvg5iNQ5t-15" vertex="1">
          <mxGeometry x="100" y="270" width="80" height="30" as="geometry" />
        </mxCell>
        <mxCell id="gvG07kWjUxrqvg5iNQ5t-7" style="edgeStyle=orthogonalEdgeStyle;rounded=0;orthogonalLoop=1;jettySize=auto;html=1;entryX=0.5;entryY=0;entryDx=0;entryDy=0;exitX=1;exitY=0.5;exitDx=0;exitDy=0;" parent="1c1d494c118603dd-1" source="gvG07kWjUxrqvg5iNQ5t-24" target="gvG07kWjUxrqvg5iNQ5t-5" edge="1">
          <mxGeometry relative="1" as="geometry" />
        </mxCell>
        <mxCell id="gvG07kWjUxrqvg5iNQ5t-23" style="edgeStyle=orthogonalEdgeStyle;rounded=0;orthogonalLoop=1;jettySize=auto;html=1;" parent="1c1d494c118603dd-1" source="gvG07kWjUxrqvg5iNQ5t-22" target="gvG07kWjUxrqvg5iNQ5t-13" edge="1">
          <mxGeometry relative="1" as="geometry" />
        </mxCell>
        <mxCell id="gvG07kWjUxrqvg5iNQ5t-21" style="edgeStyle=orthogonalEdgeStyle;rounded=0;orthogonalLoop=1;jettySize=auto;html=1;exitX=0;exitY=0.5;exitDx=0;exitDy=0;entryX=0.5;entryY=0;entryDx=0;entryDy=0;" parent="1c1d494c118603dd-1" source="gvG07kWjUxrqvg5iNQ5t-19" target="gvG07kWjUxrqvg5iNQ5t-22" edge="1">
          <mxGeometry relative="1" as="geometry">
            <mxPoint x="320" y="360" as="targetPoint" />
          </mxGeometry>
        </mxCell>
        <mxCell id="gvG07kWjUxrqvg5iNQ5t-25" style="edgeStyle=orthogonalEdgeStyle;rounded=0;orthogonalLoop=1;jettySize=auto;html=1;exitX=1;exitY=0.5;exitDx=0;exitDy=0;entryX=0;entryY=0.5;entryDx=0;entryDy=0;" parent="1c1d494c118603dd-1" source="60571a20871a0731-8" target="gvG07kWjUxrqvg5iNQ5t-24" edge="1">
          <mxGeometry relative="1" as="geometry" />
        </mxCell>
        <mxCell id="gvG07kWjUxrqvg5iNQ5t-27" style="edgeStyle=orthogonalEdgeStyle;rounded=0;orthogonalLoop=1;jettySize=auto;html=1;exitX=1;exitY=0.5;exitDx=0;exitDy=0;entryX=0.5;entryY=0;entryDx=0;entryDy=0;" parent="1c1d494c118603dd-1" source="gvG07kWjUxrqvg5iNQ5t-19" target="gvG07kWjUxrqvg5iNQ5t-26" edge="1">
          <mxGeometry relative="1" as="geometry" />
        </mxCell>
        <mxCell id="gvG07kWjUxrqvg5iNQ5t-28" style="edgeStyle=orthogonalEdgeStyle;rounded=0;orthogonalLoop=1;jettySize=auto;html=1;entryX=1;entryY=0.5;entryDx=0;entryDy=0;" parent="1c1d494c118603dd-1" source="gvG07kWjUxrqvg5iNQ5t-26" target="gvG07kWjUxrqvg5iNQ5t-5" edge="1">
          <mxGeometry relative="1" as="geometry" />
        </mxCell>
      </root>
    </mxGraphModel>
  </diagram>
</mxfile>
